<?xml version="1.0" encoding="UTF-8" standalone="no"?>
<!DOCTYPE svg PUBLIC "-//W3C//DTD SVG 1.1//EN"
 "http://www.w3.org/Graphics/SVG/1.1/DTD/svg11.dtd">
<!-- Generated by graphviz version 2.40.1 (20161225.0304)
 -->
<!-- Title: snakemake_dag Pages: 1 -->
<svg width="390pt" height="476pt"
 viewBox="0.00 0.00 390.00 476.00" xmlns="http://www.w3.org/2000/svg" xmlns:xlink="http://www.w3.org/1999/xlink">
<g id="graph0" class="graph" transform="scale(1 1) rotate(0) translate(4 472)">
<title>snakemake_dag</title>
<polygon fill="#ffffff" stroke="transparent" points="-4,4 -4,-472 386,-472 386,4 -4,4"/>
<!-- 0 -->
<g id="node1" class="node">
<title>0</title>
<path fill="none" stroke="#afd856" stroke-width="2" d="M138.5,-36C138.5,-36 108.5,-36 108.5,-36 102.5,-36 96.5,-30 96.5,-24 96.5,-24 96.5,-12 96.5,-12 96.5,-6 102.5,0 108.5,0 108.5,0 138.5,0 138.5,0 144.5,0 150.5,-6 150.5,-12 150.5,-12 150.5,-24 150.5,-24 150.5,-30 144.5,-36 138.5,-36"/>
<text text-anchor="middle" x="123.5" y="-15.5" font-family="sans" font-size="10.00" fill="#000000">target</text>
</g>
<!-- 1 -->
<g id="node2" class="node">
<title>1</title>
<path fill="none" stroke="#56d8a9" stroke-width="2" d="M120,-180C120,-180 19,-180 19,-180 13,-180 7,-174 7,-168 7,-168 7,-156 7,-156 7,-150 13,-144 19,-144 19,-144 120,-144 120,-144 126,-144 132,-150 132,-156 132,-156 132,-168 132,-168 132,-174 126,-180 120,-180"/>
<text text-anchor="middle" x="69.5" y="-159.5" font-family="sans" font-size="10.00" fill="#000000">funannotate_annotate</text>
</g>
<!-- 1&#45;&gt;0 -->
<g id="edge1" class="edge">
<title>1&#45;&gt;0</title>
<path fill="none" stroke="#c0c0c0" stroke-width="2" d="M53.5031,-143.7116C39.2009,-125.0138 22.3674,-95.4667 35.5,-72 46.5082,-52.3295 67.936,-38.954 86.8904,-30.4355"/>
<polygon fill="#c0c0c0" stroke="#c0c0c0" stroke-width="2" points="88.3517,-33.6181 96.2234,-26.5268 85.6476,-27.1614 88.3517,-33.6181"/>
</g>
<!-- 2 -->
<g id="node3" class="node">
<title>2</title>
<path fill="none" stroke="#d88d56" stroke-width="2" d="M190.5,-108C190.5,-108 56.5,-108 56.5,-108 50.5,-108 44.5,-102 44.5,-96 44.5,-96 44.5,-84 44.5,-84 44.5,-78 50.5,-72 56.5,-72 56.5,-72 190.5,-72 190.5,-72 196.5,-72 202.5,-78 202.5,-84 202.5,-84 202.5,-96 202.5,-96 202.5,-102 196.5,-108 190.5,-108"/>
<text text-anchor="middle" x="123.5" y="-93" font-family="sans" font-size="10.00" fill="#000000">busco</text>
<text text-anchor="middle" x="123.5" y="-82" font-family="sans" font-size="10.00" fill="#000000">name: predict_transcriptome</text>
</g>
<!-- 1&#45;&gt;2 -->
<g id="edge7" class="edge">
<title>1&#45;&gt;2</title>
<path fill="none" stroke="#c0c0c0" stroke-width="2" d="M83.1265,-143.8314C89.346,-135.5386 96.8322,-125.557 103.66,-116.4533"/>
<polygon fill="#c0c0c0" stroke="#c0c0c0" stroke-width="2" points="106.49,-118.5133 109.69,-108.4133 100.89,-114.3133 106.49,-118.5133"/>
</g>
<!-- 2&#45;&gt;0 -->
<g id="edge2" class="edge">
<title>2&#45;&gt;0</title>
<path fill="none" stroke="#c0c0c0" stroke-width="2" d="M123.5,-71.8314C123.5,-64.131 123.5,-54.9743 123.5,-46.4166"/>
<polygon fill="#c0c0c0" stroke="#c0c0c0" stroke-width="2" points="127.0001,-46.4132 123.5,-36.4133 120.0001,-46.4133 127.0001,-46.4132"/>
</g>
<!-- 3 -->
<g id="node4" class="node">
<title>3</title>
<path fill="none" stroke="#d88d56" stroke-width="2" d="M370,-108C370,-108 233,-108 233,-108 227,-108 221,-102 221,-96 221,-96 221,-84 221,-84 221,-78 227,-72 233,-72 233,-72 370,-72 370,-72 376,-72 382,-78 382,-84 382,-84 382,-96 382,-96 382,-102 376,-108 370,-108"/>
<text text-anchor="middle" x="301.5" y="-93" font-family="sans" font-size="10.00" fill="#000000">busco</text>
<text text-anchor="middle" x="301.5" y="-82" font-family="sans" font-size="10.00" fill="#000000">name: original_transcriptome</text>
</g>
<!-- 3&#45;&gt;0 -->
<g id="edge3" class="edge">
<title>3&#45;&gt;0</title>
<path fill="none" stroke="#c0c0c0" stroke-width="2" d="M256.5831,-71.8314C226.7336,-59.7574 188.0333,-44.1034 160.0675,-32.7913"/>
<polygon fill="#c0c0c0" stroke="#c0c0c0" stroke-width="2" points="161.2382,-29.4895 150.6554,-28.9842 158.6133,-35.9787 161.2382,-29.4895"/>
</g>
<!-- 4 -->
<g id="node5" class="node">
<title>4</title>
<path fill="none" stroke="#d85656" stroke-width="2" d="M115,-324C115,-324 24,-324 24,-324 18,-324 12,-318 12,-312 12,-312 12,-300 12,-300 12,-294 18,-288 24,-288 24,-288 115,-288 115,-288 121,-288 127,-294 127,-300 127,-300 127,-312 127,-312 127,-318 121,-324 115,-324"/>
<text text-anchor="middle" x="69.5" y="-303.5" font-family="sans" font-size="10.00" fill="#000000">funannotate_predict</text>
</g>
<!-- 4&#45;&gt;1 -->
<g id="edge4" class="edge">
<title>4&#45;&gt;1</title>
<path fill="none" stroke="#c0c0c0" stroke-width="2" d="M42.0106,-287.7646C30.6152,-278.5451 18.6403,-266.2754 12.5,-252 6.1779,-237.302 6.1779,-230.698 12.5,-216 17.2491,-204.9589 25.4885,-195.1176 34.2506,-186.9593"/>
<polygon fill="#c0c0c0" stroke="#c0c0c0" stroke-width="2" points="36.745,-189.4291 42.0106,-180.2354 32.161,-184.1388 36.745,-189.4291"/>
</g>
<!-- 5 -->
<g id="node6" class="node">
<title>5</title>
<path fill="none" stroke="#56c9d8" stroke-width="2" d="M105,-252C105,-252 34,-252 34,-252 28,-252 22,-246 22,-240 22,-240 22,-228 22,-228 22,-222 28,-216 34,-216 34,-216 105,-216 105,-216 111,-216 117,-222 117,-228 117,-228 117,-240 117,-240 117,-246 111,-252 105,-252"/>
<text text-anchor="middle" x="69.5" y="-231.5" font-family="sans" font-size="10.00" fill="#000000">eggnog_mapper</text>
</g>
<!-- 4&#45;&gt;5 -->
<g id="edge10" class="edge">
<title>4&#45;&gt;5</title>
<path fill="none" stroke="#c0c0c0" stroke-width="2" d="M69.5,-287.8314C69.5,-280.131 69.5,-270.9743 69.5,-262.4166"/>
<polygon fill="#c0c0c0" stroke="#c0c0c0" stroke-width="2" points="73.0001,-262.4132 69.5,-252.4133 66.0001,-262.4133 73.0001,-262.4132"/>
</g>
<!-- 6 -->
<g id="node7" class="node">
<title>6</title>
<path fill="none" stroke="#5692d8" stroke-width="2" d="M177.5,-252C177.5,-252 147.5,-252 147.5,-252 141.5,-252 135.5,-246 135.5,-240 135.5,-240 135.5,-228 135.5,-228 135.5,-222 141.5,-216 147.5,-216 147.5,-216 177.5,-216 177.5,-216 183.5,-216 189.5,-222 189.5,-228 189.5,-228 189.5,-240 189.5,-240 189.5,-246 183.5,-252 177.5,-252"/>
<text text-anchor="middle" x="162.5" y="-231.5" font-family="sans" font-size="10.00" fill="#000000">iprscan</text>
</g>
<!-- 4&#45;&gt;6 -->
<g id="edge11" class="edge">
<title>4&#45;&gt;6</title>
<path fill="none" stroke="#c0c0c0" stroke-width="2" d="M92.9678,-287.8314C104.5327,-278.8779 118.6404,-267.9558 131.1183,-258.2955"/>
<polygon fill="#c0c0c0" stroke="#c0c0c0" stroke-width="2" points="133.275,-261.0521 139.0397,-252.1628 128.9898,-255.5171 133.275,-261.0521"/>
</g>
<!-- 5&#45;&gt;1 -->
<g id="edge5" class="edge">
<title>5&#45;&gt;1</title>
<path fill="none" stroke="#c0c0c0" stroke-width="2" d="M69.5,-215.8314C69.5,-208.131 69.5,-198.9743 69.5,-190.4166"/>
<polygon fill="#c0c0c0" stroke="#c0c0c0" stroke-width="2" points="73.0001,-190.4132 69.5,-180.4133 66.0001,-190.4133 73.0001,-190.4132"/>
</g>
<!-- 6&#45;&gt;1 -->
<g id="edge6" class="edge">
<title>6&#45;&gt;1</title>
<path fill="none" stroke="#c0c0c0" stroke-width="2" d="M139.0322,-215.8314C127.4673,-206.8779 113.3596,-195.9558 100.8817,-186.2955"/>
<polygon fill="#c0c0c0" stroke="#c0c0c0" stroke-width="2" points="103.0102,-183.5171 92.9603,-180.1628 98.725,-189.0521 103.0102,-183.5171"/>
</g>
<!-- 7 -->
<g id="node8" class="node">
<title>7</title>
<path fill="none" stroke="#d8cb56" stroke-width="2" d="M149.5,-396C149.5,-396 69.5,-396 69.5,-396 63.5,-396 57.5,-390 57.5,-384 57.5,-384 57.5,-372 57.5,-372 57.5,-366 63.5,-360 69.5,-360 69.5,-360 149.5,-360 149.5,-360 155.5,-360 161.5,-366 161.5,-372 161.5,-372 161.5,-384 161.5,-384 161.5,-390 155.5,-396 149.5,-396"/>
<text text-anchor="middle" x="109.5" y="-375.5" font-family="sans" font-size="10.00" fill="#000000">funannotate_train</text>
</g>
<!-- 7&#45;&gt;4 -->
<g id="edge8" class="edge">
<title>7&#45;&gt;4</title>
<path fill="none" stroke="#c0c0c0" stroke-width="2" d="M99.4063,-359.8314C94.9403,-351.7925 89.5925,-342.1666 84.6621,-333.2918"/>
<polygon fill="#c0c0c0" stroke="#c0c0c0" stroke-width="2" points="87.6456,-331.4551 79.7296,-324.4133 81.5265,-334.8546 87.6456,-331.4551"/>
</g>
<!-- 8 -->
<g id="node9" class="node">
<title>8</title>
<path fill="none" stroke="#56d873" stroke-width="2" d="M47,-468C47,-468 12,-468 12,-468 6,-468 0,-462 0,-456 0,-456 0,-444 0,-444 0,-438 6,-432 12,-432 12,-432 47,-432 47,-432 53,-432 59,-438 59,-444 59,-444 59,-456 59,-456 59,-462 53,-468 47,-468"/>
<text text-anchor="middle" x="29.5" y="-447.5" font-family="sans" font-size="10.00" fill="#000000">fa_mask</text>
</g>
<!-- 8&#45;&gt;4 -->
<g id="edge9" class="edge">
<title>8&#45;&gt;4</title>
<path fill="none" stroke="#c0c0c0" stroke-width="2" d="M32.4348,-431.8543C35.608,-413.5222 41.2065,-384.488 48.5,-360 51.1003,-351.2694 54.4889,-341.9579 57.7827,-333.5693"/>
<polygon fill="#c0c0c0" stroke="#c0c0c0" stroke-width="2" points="61.0527,-334.8187 61.5528,-324.2356 54.5622,-332.1969 61.0527,-334.8187"/>
</g>
<!-- 8&#45;&gt;7 -->
<g id="edge12" class="edge">
<title>8&#45;&gt;7</title>
<path fill="none" stroke="#c0c0c0" stroke-width="2" d="M49.6874,-431.8314C59.3514,-423.1337 71.0796,-412.5783 81.5816,-403.1265"/>
<polygon fill="#c0c0c0" stroke="#c0c0c0" stroke-width="2" points="84.2275,-405.454 89.3191,-396.1628 79.5447,-400.251 84.2275,-405.454"/>
</g>
<!-- 9 -->
<g id="node10" class="node">
<title>9</title>
<path fill="none" stroke="#70d856" stroke-width="2" d="M194,-468C194,-468 89,-468 89,-468 83,-468 77,-462 77,-456 77,-456 77,-444 77,-444 77,-438 83,-432 89,-432 89,-432 194,-432 194,-432 200,-432 206,-438 206,-444 206,-444 206,-456 206,-456 206,-462 200,-468 194,-468"/>
<text text-anchor="middle" x="141.5" y="-447.5" font-family="sans" font-size="10.00" fill="#000000">combine_rnaseq_reads</text>
</g>
<!-- 9&#45;&gt;7 -->
<g id="edge13" class="edge">
<title>9&#45;&gt;7</title>
<path fill="none" stroke="#c0c0c0" stroke-width="2" d="M133.425,-431.8314C129.8898,-423.8771 125.664,-414.369 121.7544,-405.5723"/>
<polygon fill="#c0c0c0" stroke="#c0c0c0" stroke-width="2" points="124.9435,-404.1299 117.6837,-396.4133 118.5468,-406.9729 124.9435,-404.1299"/>
</g>
</g>
</svg>
