<?xml version="1.0" encoding="UTF-8" standalone="no"?>
<!DOCTYPE svg PUBLIC "-//W3C//DTD SVG 1.1//EN"
 "http://www.w3.org/Graphics/SVG/1.1/DTD/svg11.dtd">
<!-- Generated by graphviz version 2.40.1 (20161225.0304)
 -->
<!-- Title: snakemake_dag Pages: 1 -->
<svg width="403pt" height="404pt"
 viewBox="0.00 0.00 402.50 404.00" xmlns="http://www.w3.org/2000/svg" xmlns:xlink="http://www.w3.org/1999/xlink">
<g id="graph0" class="graph" transform="scale(1 1) rotate(0) translate(4 400)">
<title>snakemake_dag</title>
<polygon fill="#ffffff" stroke="transparent" points="-4,4 -4,-400 398.5,-400 398.5,4 -4,4"/>
<!-- 1 -->
<g id="node1" class="node">
<title>1</title>
<path fill="none" stroke="#afd856" stroke-width="2" d="M129.5,-108C129.5,-108 28.5,-108 28.5,-108 22.5,-108 16.5,-102 16.5,-96 16.5,-96 16.5,-84 16.5,-84 16.5,-78 22.5,-72 28.5,-72 28.5,-72 129.5,-72 129.5,-72 135.5,-72 141.5,-78 141.5,-84 141.5,-84 141.5,-96 141.5,-96 141.5,-102 135.5,-108 129.5,-108"/>
<text text-anchor="middle" x="79" y="-87.5" font-family="sans" font-size="10.00" fill="#000000">funannotate_annotate</text>
</g>
<!-- 2 -->
<g id="node2" class="node">
<title>2</title>
<path fill="none" stroke="#56d873" stroke-width="2" d="M146,-36C146,-36 12,-36 12,-36 6,-36 0,-30 0,-24 0,-24 0,-12 0,-12 0,-6 6,0 12,0 12,0 146,0 146,0 152,0 158,-6 158,-12 158,-12 158,-24 158,-24 158,-30 152,-36 146,-36"/>
<text text-anchor="middle" x="79" y="-21" font-family="sans" font-size="10.00" fill="#000000">busco</text>
<text text-anchor="middle" x="79" y="-10" font-family="sans" font-size="10.00" fill="#000000">name: predict_transcriptome</text>
</g>
<!-- 1&#45;&gt;2 -->
<g id="edge4" class="edge">
<title>1&#45;&gt;2</title>
<path fill="none" stroke="#c0c0c0" stroke-width="2" d="M79,-71.8314C79,-64.131 79,-54.9743 79,-46.4166"/>
<polygon fill="#c0c0c0" stroke="#c0c0c0" stroke-width="2" points="82.5001,-46.4132 79,-36.4133 75.5001,-46.4133 82.5001,-46.4132"/>
</g>
<!-- 3 -->
<g id="node3" class="node">
<title>3</title>
<path fill="none" stroke="#56d873" stroke-width="2" d="M382.5,-396C382.5,-396 245.5,-396 245.5,-396 239.5,-396 233.5,-390 233.5,-384 233.5,-384 233.5,-372 233.5,-372 233.5,-366 239.5,-360 245.5,-360 245.5,-360 382.5,-360 382.5,-360 388.5,-360 394.5,-366 394.5,-372 394.5,-372 394.5,-384 394.5,-384 394.5,-390 388.5,-396 382.5,-396"/>
<text text-anchor="middle" x="314" y="-381" font-family="sans" font-size="10.00" fill="#000000">busco</text>
<text text-anchor="middle" x="314" y="-370" font-family="sans" font-size="10.00" fill="#000000">name: original_transcriptome</text>
</g>
<!-- 4 -->
<g id="node4" class="node">
<title>4</title>
<path fill="none" stroke="#70d856" stroke-width="2" d="M124.5,-252C124.5,-252 33.5,-252 33.5,-252 27.5,-252 21.5,-246 21.5,-240 21.5,-240 21.5,-228 21.5,-228 21.5,-222 27.5,-216 33.5,-216 33.5,-216 124.5,-216 124.5,-216 130.5,-216 136.5,-222 136.5,-228 136.5,-228 136.5,-240 136.5,-240 136.5,-246 130.5,-252 124.5,-252"/>
<text text-anchor="middle" x="79" y="-231.5" font-family="sans" font-size="10.00" fill="#000000">funannotate_predict</text>
</g>
<!-- 4&#45;&gt;1 -->
<g id="edge1" class="edge">
<title>4&#45;&gt;1</title>
<path fill="none" stroke="#c0c0c0" stroke-width="2" d="M51.5106,-215.7646C40.1152,-206.5451 28.1403,-194.2754 22,-180 15.6779,-165.302 15.6779,-158.698 22,-144 26.7491,-132.9589 34.9885,-123.1176 43.7506,-114.9593"/>
<polygon fill="#c0c0c0" stroke="#c0c0c0" stroke-width="2" points="46.245,-117.4291 51.5106,-108.2354 41.661,-112.1388 46.245,-117.4291"/>
</g>
<!-- 5 -->
<g id="node5" class="node">
<title>5</title>
<path fill="none" stroke="#d85656" stroke-width="2" d="M114.5,-180C114.5,-180 43.5,-180 43.5,-180 37.5,-180 31.5,-174 31.5,-168 31.5,-168 31.5,-156 31.5,-156 31.5,-150 37.5,-144 43.5,-144 43.5,-144 114.5,-144 114.5,-144 120.5,-144 126.5,-150 126.5,-156 126.5,-156 126.5,-168 126.5,-168 126.5,-174 120.5,-180 114.5,-180"/>
<text text-anchor="middle" x="79" y="-159.5" font-family="sans" font-size="10.00" fill="#000000">eggnog_mapper</text>
</g>
<!-- 4&#45;&gt;5 -->
<g id="edge7" class="edge">
<title>4&#45;&gt;5</title>
<path fill="none" stroke="#c0c0c0" stroke-width="2" d="M79,-215.8314C79,-208.131 79,-198.9743 79,-190.4166"/>
<polygon fill="#c0c0c0" stroke="#c0c0c0" stroke-width="2" points="82.5001,-190.4132 79,-180.4133 75.5001,-190.4133 82.5001,-190.4132"/>
</g>
<!-- 6 -->
<g id="node6" class="node">
<title>6</title>
<path fill="none" stroke="#d88d56" stroke-width="2" d="M187,-180C187,-180 157,-180 157,-180 151,-180 145,-174 145,-168 145,-168 145,-156 145,-156 145,-150 151,-144 157,-144 157,-144 187,-144 187,-144 193,-144 199,-150 199,-156 199,-156 199,-168 199,-168 199,-174 193,-180 187,-180"/>
<text text-anchor="middle" x="172" y="-159.5" font-family="sans" font-size="10.00" fill="#000000">iprscan</text>
</g>
<!-- 4&#45;&gt;6 -->
<g id="edge8" class="edge">
<title>4&#45;&gt;6</title>
<path fill="none" stroke="#c0c0c0" stroke-width="2" d="M102.4678,-215.8314C114.0327,-206.8779 128.1404,-195.9558 140.6183,-186.2955"/>
<polygon fill="#c0c0c0" stroke="#c0c0c0" stroke-width="2" points="142.775,-189.0521 148.5397,-180.1628 138.4898,-183.5171 142.775,-189.0521"/>
</g>
<!-- 5&#45;&gt;1 -->
<g id="edge2" class="edge">
<title>5&#45;&gt;1</title>
<path fill="none" stroke="#c0c0c0" stroke-width="2" d="M79,-143.8314C79,-136.131 79,-126.9743 79,-118.4166"/>
<polygon fill="#c0c0c0" stroke="#c0c0c0" stroke-width="2" points="82.5001,-118.4132 79,-108.4133 75.5001,-118.4133 82.5001,-118.4132"/>
</g>
<!-- 6&#45;&gt;1 -->
<g id="edge3" class="edge">
<title>6&#45;&gt;1</title>
<path fill="none" stroke="#c0c0c0" stroke-width="2" d="M148.5322,-143.8314C136.9673,-134.8779 122.8596,-123.9558 110.3817,-114.2955"/>
<polygon fill="#c0c0c0" stroke="#c0c0c0" stroke-width="2" points="112.5102,-111.5171 102.4603,-108.1628 108.225,-117.0521 112.5102,-111.5171"/>
</g>
<!-- 7 -->
<g id="node7" class="node">
<title>7</title>
<path fill="none" stroke="#d8cb56" stroke-width="2" d="M159,-324C159,-324 79,-324 79,-324 73,-324 67,-318 67,-312 67,-312 67,-300 67,-300 67,-294 73,-288 79,-288 79,-288 159,-288 159,-288 165,-288 171,-294 171,-300 171,-300 171,-312 171,-312 171,-318 165,-324 159,-324"/>
<text text-anchor="middle" x="119" y="-303.5" font-family="sans" font-size="10.00" fill="#000000">funannotate_train</text>
</g>
<!-- 7&#45;&gt;4 -->
<g id="edge5" class="edge">
<title>7&#45;&gt;4</title>
<path fill="none" stroke="#c0c0c0" stroke-width="2" d="M108.9063,-287.8314C104.4403,-279.7925 99.0925,-270.1666 94.1621,-261.2918"/>
<polygon fill="#c0c0c0" stroke="#c0c0c0" stroke-width="2" points="97.1456,-259.4551 89.2296,-252.4133 91.0265,-262.8546 97.1456,-259.4551"/>
</g>
<!-- 8 -->
<g id="node8" class="node">
<title>8</title>
<path fill="none" stroke="#56c9d8" stroke-width="2" d="M56.5,-396C56.5,-396 21.5,-396 21.5,-396 15.5,-396 9.5,-390 9.5,-384 9.5,-384 9.5,-372 9.5,-372 9.5,-366 15.5,-360 21.5,-360 21.5,-360 56.5,-360 56.5,-360 62.5,-360 68.5,-366 68.5,-372 68.5,-372 68.5,-384 68.5,-384 68.5,-390 62.5,-396 56.5,-396"/>
<text text-anchor="middle" x="39" y="-375.5" font-family="sans" font-size="10.00" fill="#000000">fa_mask</text>
</g>
<!-- 8&#45;&gt;4 -->
<g id="edge6" class="edge">
<title>8&#45;&gt;4</title>
<path fill="none" stroke="#c0c0c0" stroke-width="2" d="M41.9348,-359.8543C45.108,-341.5222 50.7065,-312.488 58,-288 60.6003,-279.2694 63.9889,-269.9579 67.2827,-261.5693"/>
<polygon fill="#c0c0c0" stroke="#c0c0c0" stroke-width="2" points="70.5527,-262.8187 71.0528,-252.2356 64.0622,-260.1969 70.5527,-262.8187"/>
</g>
<!-- 8&#45;&gt;7 -->
<g id="edge9" class="edge">
<title>8&#45;&gt;7</title>
<path fill="none" stroke="#c0c0c0" stroke-width="2" d="M59.1874,-359.8314C68.8514,-351.1337 80.5796,-340.5783 91.0816,-331.1265"/>
<polygon fill="#c0c0c0" stroke="#c0c0c0" stroke-width="2" points="93.7275,-333.454 98.8191,-324.1628 89.0447,-328.251 93.7275,-333.454"/>
</g>
<!-- 9 -->
<g id="node9" class="node">
<title>9</title>
<path fill="none" stroke="#56d8a9" stroke-width="2" d="M203.5,-396C203.5,-396 98.5,-396 98.5,-396 92.5,-396 86.5,-390 86.5,-384 86.5,-384 86.5,-372 86.5,-372 86.5,-366 92.5,-360 98.5,-360 98.5,-360 203.5,-360 203.5,-360 209.5,-360 215.5,-366 215.5,-372 215.5,-372 215.5,-384 215.5,-384 215.5,-390 209.5,-396 203.5,-396"/>
<text text-anchor="middle" x="151" y="-375.5" font-family="sans" font-size="10.00" fill="#000000">combine_rnaseq_reads</text>
</g>
<!-- 9&#45;&gt;7 -->
<g id="edge10" class="edge">
<title>9&#45;&gt;7</title>
<path fill="none" stroke="#c0c0c0" stroke-width="2" d="M142.925,-359.8314C139.3898,-351.8771 135.164,-342.369 131.2544,-333.5723"/>
<polygon fill="#c0c0c0" stroke="#c0c0c0" stroke-width="2" points="134.4435,-332.1299 127.1837,-324.4133 128.0468,-334.9729 134.4435,-332.1299"/>
</g>
</g>
</svg>
